<svg width="35" height="47" viewBox="0 0 35 47" fill="none" xmlns="http://www.w3.org/2000/svg">
<path d="M0.611053 21.4138H46.6111V42.0345C46.6111 44.6628 44.4808 46.7931 41.8524 46.7931H0.611053V21.4138Z" fill="#F0DBC2"/>
<path d="M0.611053 26.1724H39.4731C40.7872 26.1724 41.8524 27.2375 41.8524 28.5518V39.6553C41.8524 40.9694 40.7872 42.0346 39.4731 42.0346H0.611053V26.1724Z" fill="#F2B9B8"/>
<path d="M0.611053 26.1724H39.4731C40.7872 26.1724 41.8524 27.2375 41.8524 28.5518V39.6553C41.8524 40.9694 40.7872 42.0346 39.4731 42.0346H0.611053V26.1724Z" fill="#F2B9B8"/>
<path d="M0.611053 21.4138L28.3697 4.75865C37.8124 4.76021 45.7069 11.9387 46.6039 21.3385L46.6111 21.4138H0.611053Z" fill="#F29C9B"/>
<path d="M37.0938 13.4828C39.7219 13.4828 41.8524 11.3523 41.8524 8.72419C41.8524 6.09607 39.7219 3.96555 37.0938 3.96555C34.4657 3.96555 32.3351 6.09607 32.3351 8.72419C32.3351 11.3523 34.4657 13.4828 37.0938 13.4828Z" fill="#F0614A"/>
<path d="M39.4621 4.60001C39.3478 8.13727 36.507 10.9781 32.9697 11.0924C34.2736 13.3742 37.1803 14.1672 39.4621 12.8642C41.7438 11.5603 42.5369 8.65364 41.2339 6.37184C40.8119 5.63348 40.2004 5.02197 39.4621 4.60001Z" fill="#EA5242"/>
<path d="M29.3951 10.8714L30.5167 9.74978L28.1373 7.37033L27.0156 8.49194L29.3951 10.8714Z" fill="#965735"/>
<path d="M19.4151 15.6293L21.7946 13.2498L20.673 12.1282L18.2935 14.5077L19.4151 15.6293Z" fill="#965735"/>
<path d="M23.8436 18.8031L24.9652 17.6814L22.5858 15.302L21.4642 16.4236L23.8436 18.8031Z" fill="#965735"/>
<path d="M26.5514 15.6317L28.9308 13.2523L27.8092 12.1307L25.4298 14.5101L26.5514 15.6317Z" fill="#965735"/>
<path d="M31.31 18.8024L33.6895 16.423L32.5679 15.3013L30.1884 17.6808L31.31 18.8024Z" fill="#965735"/>
<path d="M13.8615 18.8059L16.241 16.4264L15.1194 15.3048L12.7399 17.6843L13.8615 18.8059Z" fill="#965735"/>
<path d="M29.7052 26.1724H39.4731C40.7873 26.1724 41.8524 27.2375 41.8524 28.5518V39.6552C41.8524 40.9694 40.7873 42.0346 39.4731 42.0346H11.3386L5.82887 46.7931H41.8524C44.4808 46.7931 46.6111 44.6628 46.6111 42.0345V21.4138H35.2158L29.7052 26.1724Z" fill="#EBD3B7"/>
<path d="M39.4731 42.0345C40.7873 42.0345 41.8524 40.9694 41.8524 39.6552V28.5518C41.8524 27.2376 40.7873 26.1724 39.4731 26.1724H29.7052L11.3386 42.0345H39.4731Z" fill="#F2AEAC"/>
<path d="M41.8524 33.3104H0.611053V34.8966H41.8524V33.3104Z" fill="#F28685"/>
</svg>
