<svg width="19" height="19" viewBox="0 0 19 19" fill="none" xmlns="http://www.w3.org/2000/svg">
<path fill-rule="evenodd" clip-rule="evenodd" d="M9.5 8C11.1569 8 12.5 6.65685 12.5 5C12.5 3.34315 11.1569 2 9.5 2C7.84314 2 6.5 3.34315 6.5 5C6.5 6.65685 7.84314 8 9.5 8ZM9.5 10C12.2614 10 14.5 7.76142 14.5 5C14.5 2.23858 12.2614 0 9.5 0C6.73857 0 4.5 2.23858 4.5 5C4.5 7.76142 6.73857 10 9.5 10ZM15.9181 13H3.18623C2.89756 13.5603 2.6246 14.2677 2.53244 14.9365C2.42977 15.6816 2.56128 16.1808 2.92286 16.5H16.1814C16.543 16.1808 16.6745 15.6816 16.5719 14.9365C16.4797 14.2677 16.2067 13.5603 15.9181 13ZM16.5183 18.5H16.6803C17.0771 18.5 17.42 18.2688 17.5815 17.9338C18.5612 17.0232 18.7006 15.7336 18.5531 14.6635C18.3832 13.4303 17.8197 12.2291 17.3579 11.4859C17.3399 11.4559 17.3203 11.4269 17.2993 11.399C17.2127 11.2835 17.1049 11.1916 16.9847 11.1251C16.8648 11.0585 16.7297 11.0159 16.586 11.0036C16.5517 11.0007 16.5172 10.9994 16.4827 11H2.6043C2.25951 11 1.93904 11.1776 1.7563 11.47C1.29266 12.2118 0.722314 13.4214 0.551161 14.6635C0.37896 15.9132 0.598018 17.4624 2.08981 18.3575C2.24522 18.4507 2.42306 18.5 2.6043 18.5H16.4836C16.4951 18.5002 16.5067 18.5002 16.5183 18.5Z" fill="black" fill-opacity="0.71"/>
</svg>
