<svg width="22" height="20" viewBox="0 0 22 20" fill="none" xmlns="http://www.w3.org/2000/svg">
<path opacity="0.4" d="M1.66896 8.75678C1.25845 8.38732 0.626165 8.4206 0.256706 8.83111C-0.112753 9.24162 -0.0794747 9.87391 0.331035 10.2434L1.66896 8.75678ZM11 18.5001L10.331 19.2434C10.7113 19.5856 11.2887 19.5856 11.669 19.2434L11 18.5001ZM21 9.50007L21.669 10.2434C21.8797 10.0537 22 9.78356 22 9.50007H21ZM10.0352 4.23697C9.88992 4.76979 10.2041 5.31953 10.7369 5.46485C11.2697 5.61016 11.8194 5.29603 11.9648 4.7632L10.0352 4.23697ZM0 9.50008C0 10.0524 0.447715 10.5001 1 10.5001C1.55228 10.5001 2 10.0524 2 9.50008H0ZM10.0352 4.76321C10.1806 5.29603 10.7303 5.61017 11.2631 5.46486C11.7959 5.31954 12.1101 4.7698 11.9648 4.23697L10.0352 4.76321ZM0.331035 10.2434L10.331 19.2434L11.669 17.7568L1.66896 8.75678L0.331035 10.2434ZM11.669 19.2434L21.669 10.2434L20.331 8.75678L10.331 17.7568L11.669 19.2434ZM22 9.50007V5.00007H20V9.50007H22ZM22 5.00007C22 3.70078 21.2174 2.62842 20.2639 1.88381C19.2967 1.12843 18.0261 0.599352 16.7226 0.387975C15.4201 0.176765 13.9993 0.269809 12.7621 0.864406C11.4933 1.47424 10.4866 2.58191 10.0352 4.23697L11.9648 4.7632C12.2634 3.66826 12.8817 3.02593 13.6285 2.66702C14.407 2.29286 15.3924 2.1984 16.4024 2.36219C17.4114 2.5258 18.3596 2.93422 19.0329 3.46009C19.7201 3.99673 20 4.54936 20 5.00007H22ZM2 9.50008V5.21515H0V9.50008H2ZM2 5.21515C2 4.75972 2.28487 4.19123 2.97888 3.63219C3.65742 3.0856 4.60976 2.65314 5.6198 2.46587C6.63203 2.27819 7.61427 2.35198 8.38632 2.7076C9.12357 3.04719 9.73745 3.67133 10.0352 4.76321L11.9648 4.23697C11.5125 2.57886 10.5014 1.47988 9.22305 0.891046C7.97948 0.318241 6.55547 0.258298 5.2552 0.499383C3.95274 0.740873 2.68633 1.29967 1.72425 2.07466C0.77763 2.83719 0 3.92058 0 5.21515H2Z" fill="black" fill-opacity="0.77"/>
</svg>
